<?xml version="1.0" standalone="no"?>
<!DOCTYPE svg PUBLIC "-//W3C//DTD SVG 20010904//EN"
 "http://www.w3.org/TR/2001/REC-SVG-20010904/DTD/svg10.dtd">
<svg version="1.0" xmlns="http://www.w3.org/2000/svg"
 width="3064.000000pt" height="3064.000000pt" viewBox="0 0 3064.000000 3064.000000"
 preserveAspectRatio="xMidYMid meet">
<metadata>
Created by potrace 1.14, written by Peter Selinger 2001-2017
</metadata>
<g transform="translate(0.000000,3064.000000) scale(0.100000,-0.100000)"
fill="#000000" stroke="none">
<path d="M14870 26969 c-1786 -90 -3487 -535 -5093 -1331 -700 -347 -1274
-695 -1897 -1147 -140 -101 -472 -355 -501 -383 -8 -7 -48 -40 -89 -73 -534
-423 -1297 -1183 -1749 -1740 -9 -11 -46 -56 -82 -100 -213 -259 -691 -916
-677 -930 2 -2 116 7 253 20 138 13 346 31 464 40 117 8 217 17 221 20 3 2 48
59 100 127 99 130 359 451 408 504 16 17 39 44 51 60 28 36 108 128 141 164
469 503 746 772 1135 1105 1026 879 2213 1593 3475 2092 1078 427 2214 699
3345 802 412 38 593 45 1085 45 490 0 675 -7 1085 -45 1278 -115 2530 -434
3702 -942 365 -159 680 -314 1068 -527 344 -189 897 -540 1190 -755 604 -444
1016 -794 1490 -1269 367 -368 585 -611 901 -1001 372 -460 703 -944 1065
-1555 203 -342 497 -943 693 -1412 734 -1764 1036 -3748 860 -5658 -52 -572
-163 -1260 -293 -1818 -20 -85 -25 -125 -17 -127 6 -1 99 -10 206 -19 107 -9
264 -26 349 -36 85 -11 158 -17 162 -13 8 9 25 84 73 313 152 728 240 1380
288 2135 15 246 15 1011 -1 1275 -59 1007 -186 1792 -446 2764 -152 571 -438
1348 -715 1946 -432 933 -976 1811 -1630 2634 -116 146 -135 169 -329 395
-412 481 -961 1020 -1481 1455 -1551 1297 -3362 2204 -5310 2662 -676 158
-1329 255 -2085 310 -260 18 -1148 27 -1415 13z"/>
<path d="M19360 23639 c-100 -13 -222 -54 -365 -124 -131 -64 -360 -214 -360
-237 0 -6 15 -21 33 -31 45 -26 110 -25 247 4 222 48 602 23 722 -47 25 -15
67 -57 103 -104 92 -121 100 -125 270 -149 80 -12 213 -28 295 -36 165 -16
233 -32 289 -70 20 -14 40 -25 43 -25 13 0 -10 70 -49 152 -48 101 -48 101 45
146 87 43 187 68 340 87 73 8 186 22 252 30 119 14 280 50 342 76 33 14 31 15
-180 82 -372 118 -599 167 -775 167 -70 0 -92 -5 -159 -34 -123 -53 -148 -59
-237 -54 -63 4 -117 17 -246 61 -200 68 -298 93 -410 107 -94 11 -107 11 -200
-1z"/>
<path d="M16105 22934 c-68 -10 -118 -24 -155 -44 -67 -35 -150 -76 -209 -104
-24 -12 -76 -53 -115 -92 -39 -39 -84 -79 -100 -90 -39 -25 -124 -156 -131
-202 -4 -20 -26 -77 -50 -127 -55 -115 -75 -183 -75 -259 0 -34 -8 -92 -17
-131 -16 -65 -16 -74 1 -155 24 -115 65 -210 131 -298 70 -94 79 -125 71 -226
-6 -76 -8 -83 -40 -111 -48 -43 -164 -107 -318 -177 -400 -180 -722 -343 -802
-407 -21 -17 -98 -61 -170 -97 -261 -132 -338 -189 -385 -283 -16 -31 -83
-126 -150 -211 -66 -85 -136 -185 -156 -221 -26 -50 -60 -89 -139 -163 -178
-165 -259 -228 -428 -334 -181 -112 -305 -219 -544 -463 -340 -349 -500 -569
-957 -1314 -351 -572 -358 -581 -572 -748 -57 -44 -96 -86 -135 -142 -78 -114
-146 -176 -390 -358 -118 -88 -264 -201 -325 -251 -252 -207 -304 -257 -360
-340 -30 -44 -84 -119 -120 -166 -36 -47 -64 -92 -62 -100 3 -19 56 -18 202 4
185 28 263 57 347 128 147 122 231 169 433 242 72 26 177 69 234 97 57 27 106
48 108 45 8 -8 -47 -114 -91 -175 -37 -52 -46 -73 -46 -106 0 -71 50 -116 100
-90 35 19 370 360 407 415 48 71 78 138 117 254 20 60 51 129 68 155 98 144
291 362 478 536 180 168 183 171 415 375 121 106 276 246 345 309 69 64 118
107 110 96 -8 -11 -96 -117 -195 -235 -306 -364 -287 -336 -370 -542 -84 -207
-85 -210 -60 -405 84 -646 477 -1223 1016 -1494 54 -26 149 -66 212 -88 180
-62 228 -92 483 -296 92 -74 175 -135 185 -135 10 0 29 5 43 12 22 9 31 7 66
-17 54 -38 123 -113 152 -166 20 -39 23 -57 23 -154 -1 -105 -3 -117 -52 -265
-58 -174 -114 -387 -140 -536 -13 -76 -17 -155 -17 -339 0 -314 24 -497 148
-1125 14 -68 24 -126 22 -127 -1 -1 -146 -61 -322 -134 -2151 -882 -4107
-1889 -5593 -2882 -429 -286 -587 -405 -728 -549 -225 -228 -349 -435 -533
-888 -50 -124 -122 -290 -160 -370 -123 -259 -165 -426 -142 -562 15 -87 41
-138 101 -198 180 -180 600 -224 1346 -140 1158 132 2696 497 4565 1085 3032
954 6272 2246 8865 3536 2498 1242 4212 2392 5020 3368 191 231 294 388 310
474 9 45 -10 78 -58 104 -61 34 -315 22 -1142 -53 -2588 -234 -5276 -755
-7885 -1530 -177 -53 -544 -165 -603 -184 -26 -9 -28 -8 -22 11 16 49 294 646
595 1277 33 67 119 227 192 355 207 364 261 503 262 677 1 130 -20 174 -153
314 -55 58 -101 110 -101 115 0 15 -74 58 -303 178 -305 159 -486 259 -521
288 -25 20 -28 26 -17 39 7 8 10 19 7 25 -18 28 -299 189 -676 386 -283 147
-425 226 -746 411 -127 73 -266 147 -310 165 -146 58 -180 82 -190 134 -13 73
100 266 240 407 104 105 215 195 496 398 333 240 480 369 578 508 32 46 88
160 101 207 12 42 37 88 27 50 -2 -11 -9 -51 -15 -90 -22 -152 -23 -139 17
-177 122 -115 351 -253 586 -353 61 -25 243 -96 405 -156 453 -169 627 -249
810 -370 74 -50 107 -80 165 -153 121 -151 162 -183 382 -292 191 -94 195 -96
220 -79 22 14 25 22 22 63 -3 44 -7 49 -68 98 -69 56 -100 101 -100 146 l0 28
208 3 c316 3 350 2 417 -23 99 -36 185 -45 279 -30 44 7 85 15 89 17 14 8 -34
53 -118 107 -44 29 -103 73 -132 97 -49 42 -257 166 -315 188 -15 5 -103 26
-197 46 -192 40 -223 51 -295 105 -72 53 -131 81 -291 135 -175 60 -232 88
-342 172 -167 126 -259 207 -478 423 -258 254 -338 317 -607 479 -58 35 -90
60 -93 74 -8 39 -24 179 -36 322 l-11 140 41 103 c50 124 95 216 127 259 16
21 26 51 30 90 3 32 13 94 22 138 24 118 21 326 -7 430 -33 125 -91 234 -157
294 -30 28 -61 51 -68 51 -7 0 -51 -56 -96 -125 -46 -69 -85 -124 -87 -122 -2
2 24 67 56 144 68 161 72 174 100 343 12 69 26 144 31 168 6 23 10 55 10 71 0
35 37 91 124 187 l68 74 -10 43 c-5 23 -24 96 -41 162 -19 73 -29 130 -26 147
7 31 58 78 84 78 10 0 20 2 23 6 10 9 -31 82 -50 88 -30 10 -104 86 -149 154
-52 78 -62 123 -38 164 9 16 15 30 13 32 -1 1 -40 34 -84 73 -91 79 -82 75
-219 102 -55 11 -194 50 -310 86 -237 75 -284 81 -430 59z m-1015 -7574 c192
-225 206 -239 306 -296 232 -135 243 -139 474 -185 157 -32 187 -40 268 -71
l53 -21 23 22 23 21 208 -35 c197 -34 272 -54 457 -124 31 -12 58 -28 61 -35
10 -26 -33 -95 -155 -248 -201 -250 -238 -312 -308 -513 -67 -195 -80 -282
-85 -559 -3 -182 -9 -269 -24 -356 -21 -122 -74 -323 -113 -429 l-23 -64 -350
-122 c-308 -107 -680 -241 -888 -320 l-69 -25 7 32 c4 18 36 130 70 248 102
345 122 438 145 675 14 133 33 238 110 585 98 445 124 611 118 770 -2 41 4
103 11 137 13 56 13 74 -3 175 -21 135 -31 161 -96 248 -53 71 -59 93 -35 120
14 15 0 37 -146 231 -177 236 -289 392 -289 405 0 16 96 -86 250 -266z"/>
<path d="M15690 14648 c10 -24 26 -88 36 -144 16 -94 16 -106 1 -172 -11 -48
-14 -93 -10 -135 l6 -64 146 42 c117 35 525 140 654 169 32 7 87 85 87 123 0
26 -13 34 -112 69 -40 14 -87 32 -104 39 -29 13 -202 48 -376 75 -76 12 -78
12 -96 -10 -17 -21 -20 -22 -49 -7 -31 16 -167 57 -190 57 -8 0 -6 -13 7 -42z"/>
<path d="M22975 21906 c-183 -27 -341 -79 -522 -173 -196 -101 -272 -167 -421
-368 -41 -55 -75 -101 -77 -103 -1 -2 -54 13 -117 32 -163 49 -263 67 -423 73
-411 16 -785 -132 -1154 -457 -118 -104 -381 -414 -381 -448 0 -22 108 -37
255 -37 142 0 155 2 241 32 51 18 186 79 300 137 248 124 369 168 469 169 85
2 113 -11 240 -112 108 -85 157 -111 214 -111 23 0 117 12 209 26 291 44 352
36 545 -71 62 -35 114 -61 117 -58 3 2 8 71 11 151 4 81 10 156 14 168 5 16
-3 32 -34 68 -23 26 -41 57 -41 69 0 32 87 142 188 239 260 247 689 450 1132
534 l142 28 -127 63 c-138 70 -257 113 -377 137 -110 23 -295 28 -403 12z"/>
<path d="M22285 17461 c-340 -40 -698 -201 -1071 -483 -634 -478 -1219 -1273
-1459 -1983 -23 -68 -75 -268 -71 -272 2 -2 45 45 97 104 133 153 403 422 541
538 64 54 114 103 111 108 -3 6 -1 7 5 3 5 -3 50 24 99 61 413 312 844 505
1368 612 55 11 177 34 270 51 503 91 796 208 994 396 159 150 193 333 94 502
-27 45 -105 129 -158 170 -94 73 -277 148 -426 177 -101 19 -298 27 -394 16z"/>
<path d="M22350 15439 c-480 -59 -1000 -294 -1302 -587 -43 -42 -78 -79 -78
-83 0 -5 55 20 123 54 259 134 377 162 647 154 267 -7 351 -33 503 -154 45
-36 107 -77 137 -92 51 -24 65 -26 190 -26 132 0 137 1 201 32 177 87 295 319
249 490 -24 89 -114 154 -269 194 -89 24 -288 33 -401 18z"/>
<path d="M13270 14518 c-608 -128 -1137 -262 -1645 -415 -82 -25 -177 -53
-210 -63 -298 -88 -941 -315 -1355 -479 -211 -84 -230 -92 -224 -102 3 -5 -1
-6 -8 -4 -31 12 -690 -285 -1168 -526 -532 -268 -998 -536 -1630 -939 -414
-264 -1203 -813 -1475 -1027 -5 -5 -84 -66 -175 -137 -513 -402 -876 -722
-1306 -1151 -298 -297 -412 -420 -586 -630 -55 -66 -110 -131 -122 -145 -57
-68 -300 -399 -368 -502 -383 -578 -599 -1080 -690 -1604 -20 -112 -23 -165
-23 -394 0 -315 19 -445 101 -690 23 -67 143 -324 176 -375 72 -111 102 -153
167 -235 325 -405 835 -732 1474 -945 779 -258 1649 -385 2646 -385 1909 0
4166 479 6996 1483 116 41 228 82 250 90 22 9 103 38 180 66 168 59 757 281
1015 381 102 40 235 92 295 115 183 71 721 286 1050 420 171 70 391 160 490
200 99 40 378 155 620 255 242 100 499 206 570 235 72 29 209 85 305 125 361
147 1117 443 1300 508 30 11 163 59 295 107 1353 490 2609 817 3755 979 859
122 1719 147 2500 75 670 -62 1338 -202 1925 -403 91 -31 134 -38 94 -15 -9 5
-52 37 -96 73 -526 424 -1299 729 -2223 876 -760 120 -1695 146 -2695 74
-1669 -119 -3669 -501 -5860 -1119 -104 -29 -206 -58 -225 -63 -154 -42 -771
-230 -870 -266 -338 -120 -1310 -470 -1460 -526 -41 -15 -293 -105 -560 -200
-267 -94 -494 -176 -505 -180 -33 -14 -326 -114 -750 -256 -2163 -727 -3664
-1070 -5100 -1165 -233 -16 -841 -16 -1065 0 -1547 106 -2621 574 -3003 1310
-277 531 -219 1252 156 1937 89 163 246 405 336 518 17 21 28 43 24 49 -3 5
-1 7 4 4 6 -4 32 21 59 56 27 34 61 75 75 92 15 16 64 73 110 125 193 221 532
545 824 786 66 54 122 101 125 105 3 3 34 28 70 55 227 175 378 286 545 403
105 74 189 138 187 143 -1 5 2 7 8 3 5 -3 49 21 97 53 97 66 257 170 288 188
11 6 108 65 215 131 710 437 1745 966 2530 1294 52 22 109 46 125 54 264 120
992 396 1430 543 322 108 869 273 900 271 5 0 -89 -33 -210 -73 -812 -271
-1855 -755 -2740 -1271 -291 -170 -350 -205 -445 -263 -387 -239 -853 -546
-1145 -755 -518 -370 -989 -747 -1370 -1097 -166 -152 -218 -202 -360 -345
-973 -979 -1403 -1842 -1250 -2512 16 -73 23 -91 63 -193 161 -402 592 -744
1237 -982 115 -43 206 -74 238 -82 l27 -6 -6 67 c-13 136 31 302 137 523 66
135 114 252 189 455 169 456 319 738 519 977 141 168 274 277 658 534 120 81
222 150 226 154 5 4 17 52 29 106 61 295 233 680 436 979 345 505 905 1039
1583 1511 312 217 498 338 777 505 758 453 1857 994 2807 1380 39 15 101 41
139 57 l70 28 43 140 c84 265 95 313 90 391 -6 102 -39 164 -134 253 -66 61
-81 71 -102 65 -75 -18 -69 -21 -225 105 -82 66 -149 120 -150 119 0 -1 -21
-5 -46 -11z"/>
<path d="M25940 10683 c-1269 -46 -2537 -323 -3873 -845 -114 -45 -206 -83
-204 -85 2 -1 109 10 238 27 1034 130 2045 142 3007 34 869 -97 1677 -301
2377 -602 393 -168 866 -437 1155 -656 94 -71 308 -244 354 -285 184 -166 526
-538 625 -678 12 -18 27 -33 32 -33 5 0 45 53 88 118 343 521 435 1041 264
1502 -115 311 -332 581 -660 819 -211 153 -525 308 -818 406 -597 198 -1656
312 -2585 278z"/>
</g>
</svg>
